# xmcd
#
# Track frame offsets:
#	150
#	18292
#	31507
#	47985
#	65130
#	77907
#	94487
#	108022
#	135410
#	158275
#	175660
#	191447
#
# Disc length: 2801 seconds
#
# Revision: 0
# Processed by: cddbd v1.5.2PL0 Copyright (c) Steve Scherf et al.
# Submitted via: audiograbber 1.83.01
#
DISCID=8a0aef0c
DTITLE=Tom Russell Band - Poor Man's Dream
DYEAR=1990
DGENRE=Country
TTITLE0=Blue Wing
TTITLE1=The Heart Of The Working Man
TTITLE2=Veteran's Day
TTITLE3=Walkin' On The Moon
TTITLE4=Outbound Plane
TTITLE5=Bergenfield
TTITLE6=Spanish Burgundy
TTITLE7=Gallo del Cielo
TTITLE8=La Frontera
TTITLE9=Navajo Rug
TTITLE10=Under The Gun
TTITLE11=The White Trash Song
EXTD=
EXTT0=
EXTT1=
EXTT2=
EXTT3=
EXTT4=
EXTT5=
EXTT6=
EXTT7=
EXTT8=
EXTT9=
EXTT10=
EXTT11=
PLAYORDER=
